{
  "accessors": [
    {
      "bufferView": 2,
      "componentType": 5126,
      "count": 54668,
      "max": [
        10.89911937713623,
        4.492578029632568,
        10.916343688964844
      ],
      "min": [
        -10.900720596313477,
        -4.493208408355713,
        -6.767073154449463
      ],
      "type": "VEC3"
    },
    {
      "bufferView": 2,
      "byteOffset": 656016,
      "componentType": 5126,
      "count": 54668,
      "max": [
        1.0,
        0.9999646544456482,
        0.9999823570251465
      ],
      "min": [
        -0.9999996423721313,
        -0.9999761581420898,
        -1.0
      ],
      "type": "VEC3"
    },
    {
      "bufferView": 1,
      "componentType": 5126,
      "count": 54668,
      "max": [
        0.9949679374694824,
        0.99853515625
      ],
      "min": [
        0.0,
        0.0
      ],
      "type": "VEC2"
    },
    {
      "bufferView": 1,
      "byteOffset": 437344,
      "componentType": 5126,
      "count": 54668,
      "max": [
        0.9949679374694824,
        0.99853515625
      ],
      "min": [
        0.0,
        0.0
      ],
      "type": "VEC2"
    },
    {
      "bufferView": 1,
      "byteOffset": 874688,
      "componentType": 5126,
      "count": 54668,
      "max": [
        0.9949679374694824,
        0.99853515625
      ],
      "min": [
        0.0,
        0.0
      ],
      "type": "VEC2"
    },
    {
      "bufferView": 1,
      "byteOffset": 1312032,
      "componentType": 5126,
      "count": 54668,
      "max": [
        0.9949679374694824,
        0.99853515625
      ],
      "min": [
        0.0,
        0.0
      ],
      "type": "VEC2"
    },
    {
      "bufferView": 1,
      "byteOffset": 1749376,
      "componentType": 5126,
      "count": 54668,
      "max": [
        0.9949679374694824,
        0.99853515625
      ],
      "min": [
        0.0,
        0.0
      ],
      "type": "VEC2"
    },
    {
      "bufferView": 1,
      "byteOffset": 2186720,
      "componentType": 5126,
      "count": 54668,
      "max": [
        0.9949679374694824,
        0.99853515625
      ],
      "min": [
        0.0,
        0.0
      ],
      "type": "VEC2"
    },
    {
      "bufferView": 1,
      "byteOffset": 2624064,
      "componentType": 5126,
      "count": 54668,
      "max": [
        0.9949679374694824,
        0.99853515625
      ],
      "min": [
        0.0,
        0.0
      ],
      "type": "VEC2"
    },
    {
      "bufferView": 1,
      "byteOffset": 3061408,
      "componentType": 5126,
      "count": 54668,
      "max": [
        0.9949679374694824,
        0.99853515625
      ],
      "min": [
        0.0,
        0.0
      ],
      "type": "VEC2"
    },
    {
      "bufferView": 1,
      "byteOffset": 3498752,
      "componentType": 5126,
      "count": 54668,
      "max": [
        0.9949679374694824,
        0.99853515625
      ],
      "min": [
        0.0,
        0.0
      ],
      "type": "VEC2"
    },
    {
      "bufferView": 1,
      "byteOffset": 3936096,
      "componentType": 5126,
      "count": 54668,
      "max": [
        0.9949679374694824,
        0.99853515625
      ],
      "min": [
        0.0,
        0.0
      ],
      "type": "VEC2"
    },
    {
      "bufferView": 0,
      "componentType": 5125,
      "count": 212772,
      "type": "SCALAR"
    },
    {
      "bufferView": 2,
      "byteOffset": 1312032,
      "componentType": 5126,
      "count": 2268,
      "max": [
        7.990789413452148,
        3.8888797760009766,
        -4.627571105957031
      ],
      "min": [
        -8.461196899414063,
        -3.8888778686523438,
        -10.521245956420898
      ],
      "type": "VEC3"
    },
    {
      "bufferView": 2,
      "byteOffset": 1339248,
      "componentType": 5126,
      "count": 2268,
      "max": [
        0.9852782487869263,
        0.9996892213821411,
        0.9997143745422363
      ],
      "min": [
        -0.9892772436141968,
        -0.9996894001960754,
        -0.9999990463256836
      ],
      "type": "VEC3"
    },
    {
      "bufferView": 1,
      "byteOffset": 4373440,
      "componentType": 5126,
      "count": 2268,
      "max": [
        0.99853515625,
        0.8597966432571411
      ],
      "min": [
        0.0,
        0.0
      ],
      "type": "VEC2"
    },
    {
      "bufferView": 1,
      "byteOffset": 4391584,
      "componentType": 5126,
      "count": 2268,
      "max": [
        0.99853515625,
        0.8597966432571411
      ],
      "min": [
        0.0,
        0.0
      ],
      "type": "VEC2"
    },
    {
      "bufferView": 1,
      "byteOffset": 4409728,
      "componentType": 5126,
      "count": 2268,
      "max": [
        0.99853515625,
        0.8597966432571411
      ],
      "min": [
        0.0,
        0.0
      ],
      "type": "VEC2"
    },
    {
      "bufferView": 1,
      "byteOffset": 4427872,
      "componentType": 5126,
      "count": 2268,
      "max": [
        0.99853515625,
        0.8597966432571411
      ],
      "min": [
        0.0,
        0.0
      ],
      "type": "VEC2"
    },
    {
      "bufferView": 1,
      "byteOffset": 4446016,
      "componentType": 5126,
      "count": 2268,
      "max": [
        0.99853515625,
        0.8597966432571411
      ],
      "min": [
        0.0,
        0.0
      ],
      "type": "VEC2"
    },
    {
      "bufferView": 1,
      "byteOffset": 4464160,
      "componentType": 5126,
      "count": 2268,
      "max": [
        0.99853515625,
        0.8597966432571411
      ],
      "min": [
        0.0,
        0.0
      ],
      "type": "VEC2"
    },
    {
      "bufferView": 1,
      "byteOffset": 4482304,
      "componentType": 5126,
      "count": 2268,
      "max": [
        0.99853515625,
        0.8597966432571411
      ],
      "min": [
        0.0,
        0.0
      ],
      "type": "VEC2"
    },
    {
      "bufferView": 1,
      "byteOffset": 4500448,
      "componentType": 5126,
      "count": 2268,
      "max": [
        0.99853515625,
        0.8597966432571411
      ],
      "min": [
        0.0,
        0.0
      ],
      "type": "VEC2"
    },
    {
      "bufferView": 1,
      "byteOffset": 4518592,
      "componentType": 5126,
      "count": 2268,
      "max": [
        0.99853515625,
        0.8597966432571411
      ],
      "min": [
        0.0,
        0.0
      ],
      "type": "VEC2"
    },
    {
      "bufferView": 1,
      "byteOffset": 4536736,
      "componentType": 5126,
      "count": 2268,
      "max": [
        0.99853515625,
        0.8597966432571411
      ],
      "min": [
        0.0,
        0.0
      ],
      "type": "VEC2"
    },
    {
      "bufferView": 0,
      "byteOffset": 851088,
      "componentType": 5125,
      "count": 9372,
      "type": "SCALAR"
    }
  ],
  "asset": {
    "extras": {
      "author": "CADtrends (https://sketchfab.com/CADtrends)",
      "license": "CC-BY-4.0 (http://creativecommons.org/licenses/by/4.0/)",
      "source": "https://sketchfab.com/3d-models/gotay-greekkeybnd-6fe1ac293ea3421680734d537545d1b3",
      "title": "Gotay GreekKeyBnd"
    },
    "generator": "Sketchfab-15.55.0",
    "version": "2.0"
  },
  "bufferViews": [
    {
      "buffer": 0,
      "byteLength": 888576,
      "name": "floatBufferViews",
      "target": 34963
    },
    {
      "buffer": 0,
      "byteLength": 4554880,
      "byteOffset": 888576,
      "byteStride": 8,
      "name": "floatBufferViews",
      "target": 34962
    },
    {
      "buffer": 0,
      "byteLength": 1366464,
      "byteOffset": 5443456,
      "byteStride": 12,
      "name": "floatBufferViews",
      "target": 34962
    }
  ],
  "buffers": [
    {
      "byteLength": 6809920,
      "uri": "scene.bin"
    }
  ],
  "materials": [
    {
      "doubleSided": true,
      "name": "Yellow_Gold-821c38dc-6201-4637-9ae9-57a4742cffdf",
      "pbrMetallicRoughness": {
        "baseColorFactor": [
          0.705882,
          0.588235,
          0.396078,
          1.0
        ],
        "metallicFactor": 0.0,
        "roughnessFactor": 0.695473835352433
      }
    },
    {
      "doubleSided": true,
      "name": "Yellow_Gold-821c38dc-6201-4637-9ae9-57a4742cffdf_2",
      "pbrMetallicRoughness": {
        "baseColorFactor": [
          0.705882,
          0.588235,
          0.396078,
          1.0
        ],
        "metallicFactor": 0.0,
        "roughnessFactor": 0.695473835352433
      }
    }
  ],
  "meshes": [
    {
      "name": "Object_1_/Yellow Gold-821c38dc-6201-4637-9ae9-57a4742cffdf_0",
      "primitives": [
        {
          "attributes": {
            "NORMAL": 1,
            "POSITION": 0,
            "TEXCOORD_0": 2,
            "TEXCOORD_1": 3,
            "TEXCOORD_2": 4,
            "TEXCOORD_3": 5,
            "TEXCOORD_4": 6,
            "TEXCOORD_5": 7,
            "TEXCOORD_6": 8,
            "TEXCOORD_7": 9,
            "TEXCOORD_8": 10,
            "TEXCOORD_9": 11
          },
          "indices": 12,
          "material": 0,
          "mode": 4
        }
      ]
    },
    {
      "name": "Object_2_/Yellow Gold-821c38dc-6201-4637-9ae9-57a4742cffdf_2_0",
      "primitives": [
        {
          "attributes": {
            "NORMAL": 14,
            "POSITION": 13,
            "TEXCOORD_0": 15,
            "TEXCOORD_1": 16,
            "TEXCOORD_2": 17,
            "TEXCOORD_3": 18,
            "TEXCOORD_4": 19,
            "TEXCOORD_5": 20,
            "TEXCOORD_6": 21,
            "TEXCOORD_7": 22,
            "TEXCOORD_8": 23,
            "TEXCOORD_9": 24
          },
          "indices": 25,
          "material": 1,
          "mode": 4
        }
      ]
    }
  ],
  "nodes": [
    {
      "children": [
        1
      ],
      "matrix": [
        1.0,
        0.0,
        0.0,
        0.0,
        0.0,
        -1.0,
        -4.440892098500626e-16,
        0.0,
        0.0,
        4.440892098500626e-16,
        -1.0,
        0.0,
        0.0,
        0.0,
        0.0,
        1.0
      ],
      "name": "Sketchfab_model"
    },
    {
      "children": [
        2
      ],
      "matrix": [
        0.0010000000474974513,
        0.0,
        0.0,
        0.0,
        0.0,
        0.0,
        0.0010000000474974513,
        0.0,
        0.0,
        -0.0010000000474974513,
        0.0,
        0.0,
        0.0,
        0.0,
        0.0,
        1.0
      ],
      "name": "862a3d7763424479a65f0f7424a77332.fbx"
    },
    {
      "children": [
        3
      ],
      "name": "RootNode"
    },
    {
      "children": [
        4,
        6
      ],
      "name": "Metal 01"
    },
    {
      "children": [
        5
      ],
      "name": "Object_1"
    },
    {
      "mesh": 0,
      "name": "Object_1_/Yellow Gold-821c38dc-6201-4637-9ae9-57a4742cffdf_0"
    },
    {
      "children": [
        7
      ],
      "name": "Object_2"
    },
    {
      "mesh": 1,
      "name": "Object_2_/Yellow Gold-821c38dc-6201-4637-9ae9-57a4742cffdf_2_0"
    }
  ],
  "scene": 0,
  "scenes": [
    {
      "name": "Sketchfab_Scene",
      "nodes": [
        0
      ]
    }
  ]
}
